<svg width="200" height="120" viewBox="0 0 200 120" fill="none" xmlns="http://www.w3.org/2000/svg">
  <!-- Ship hull -->
  <path d="M20 80 L180 80 L170 95 L30 95 Z" fill="#374151" stroke="#1F2937" stroke-width="2"/>
  
  <!-- Ship deck -->
  <rect x="25" y="70" width="150" height="10" fill="#4B5563" stroke="#374151" stroke-width="1"/>
  
  <!-- Main mast -->
  <line x1="100" y1="20" x2="100" y2="70" stroke="#8B5CF6" stroke-width="3"/>
  
  <!-- Sails -->
  <path d="M70 25 Q85 20 100 25 Q115 20 130 25 L130 60 Q115 65 100 60 Q85 65 70 60 Z" fill="#E0E7FF" stroke="#8B5CF6" stroke-width="2"/>
  
  <!-- Flag -->
  <path d="M100 20 L120 25 L120 35 L100 30 Z" fill="#EF4444"/>
  
  <!-- Cabin -->
  <rect x="60" y="50" width="80" height="20" fill="#6B7280" stroke="#4B5563" stroke-width="1"/>
  
  <!-- Windows -->
  <circle cx="80" cy="60" r="3" fill="#FEF3C7"/>
  <circle cx="100" cy="60" r="3" fill="#FEF3C7"/>
  <circle cx="120" cy="60" r="3" fill="#FEF3C7"/>
  
  <!-- Water waves -->
  <path d="M0 95 Q25 90 50 95 T100 95 T150 95 T200 95" stroke="#3B82F6" stroke-width="2" fill="none"/>
  <path d="M0 100 Q25 95 50 100 T100 100 T150 100 T200 100" stroke="#60A5FA" stroke-width="2" fill="none"/>
  <path d="M0 105 Q25 100 50 105 T100 105 T150 105 T200 105" stroke="#93C5FD" stroke-width="2" fill="none"/>
</svg>
